<svg width="136" height="90" viewBox="0 0 136 90" fill="none" xmlns="http://www.w3.org/2000/svg">
<path d="M0 58.2344C0 40.6913 14.2215 26.4697 31.7647 26.4697C49.3079 26.4697 63.5294 40.6913 63.5294 58.2344V75.8815C63.5294 83.6785 57.2087 89.9991 49.4118 89.9991H31.7647C14.2215 89.9991 0 75.7776 0 58.2344Z" fill="#57504A"/>
<path d="M71.4668 25.0515V15.8824C71.4668 7.11077 78.5776 0 87.3491 0C96.1207 0 103.232 7.11076 103.232 15.8823V18.0207C103.232 22.2217 105.914 25.9537 109.896 27.2929L114.408 28.8106C126.71 32.9482 134.996 44.478 134.996 57.4569V58.427C134.996 75.8643 120.861 90 103.423 90H85.5844C77.7875 90 71.4668 83.6793 71.4668 75.8823V25.0515Z" fill="#57504A"/>
<path d="M130.107 11.4545C129.027 11.4545 128.046 11.2079 127.162 10.7146C126.298 10.2016 125.611 9.51092 125.101 8.64271C124.61 7.77449 124.365 6.79775 124.365 5.71247C124.365 4.6272 124.62 3.66032 125.13 2.81184C125.641 1.94362 126.328 1.26286 127.192 0.769557C128.055 0.256519 129.027 0 130.107 0C131.186 0 132.158 0.256519 133.022 0.769557C133.886 1.26286 134.563 1.94362 135.054 2.81184C135.564 3.66032 135.819 4.6272 135.819 5.71247C135.819 6.79775 135.564 7.77449 135.054 8.64271C134.563 9.51092 133.886 10.2016 133.022 10.7146C132.178 11.2079 131.206 11.4545 130.107 11.4545ZM130.107 10.6258C131.029 10.6258 131.854 10.4186 132.58 10.0042C133.326 9.57012 133.905 8.97815 134.318 8.22833C134.749 7.47851 134.965 6.63989 134.965 5.71247C134.965 4.78506 134.749 3.95631 134.318 3.22622C133.905 2.47639 133.326 1.89429 132.58 1.47992C131.854 1.04581 131.029 0.828753 130.107 0.828753C129.184 0.828753 128.35 1.04581 127.604 1.47992C126.877 1.89429 126.298 2.47639 125.866 3.22622C125.454 3.95631 125.248 4.78506 125.248 5.71247C125.248 6.63989 125.454 7.47851 125.866 8.22833C126.298 8.97815 126.877 9.57012 127.604 10.0042C128.35 10.4186 129.184 10.6258 130.107 10.6258ZM128.899 8.84989H127.987V2.45666H130.283C130.97 2.45666 131.52 2.63425 131.932 2.98943C132.345 3.32488 132.551 3.79845 132.551 4.41015C132.551 4.82452 132.443 5.18957 132.227 5.50529C132.011 5.821 131.677 6.05779 131.226 6.21565L132.669 8.84989H131.638L130.342 6.42283H128.899V8.84989ZM131.579 4.43975C131.579 3.68992 131.137 3.31501 130.254 3.31501H128.899V5.56448H130.254C130.666 5.56448 130.99 5.47569 131.226 5.2981C131.461 5.10078 131.579 4.81466 131.579 4.43975Z" fill="#57504A"/>
</svg>
